<svg xmlns="http://www.w3.org/2000/svg" width="900" height="500" viewBox="0 0 900 500" font-family="ui-sans-serif,-apple-system,BlinkMacSystemFont,'Segoe UI',Roboto,Helvetica,Arial,sans-serif"><rect width="900" height="500" fill="#fcfcfb"/><text x="78" y="34" font-size="17" font-weight="600" fill="#0b0b0b">Time to first audio under load</text><text x="78" y="55" font-size="12.5" fill="#52514e">refund-escalation &#183; deepgram voice agent</text><rect x="78.0" y="66" width="10" height="10" rx="2" fill="#86b6ef"/><text x="93.0" y="75" font-size="12" fill="#52514e">p50</text><rect x="134.0" y="66" width="10" height="10" rx="2" fill="#2a78d6"/><text x="149.0" y="75" font-size="12" fill="#52514e">p95</text><rect x="190.0" y="66" width="10" height="10" rx="2" fill="#104281"/><text x="205.0" y="75" font-size="12" fill="#52514e">p99</text><line x1="78" y1="404.0" x2="768.0" y2="404.0" stroke="#e6e5e0" stroke-width="1"/><text x="68" y="408.0" font-size="11" fill="#8a8880" text-anchor="end">0ms</text><line x1="78" y1="342.4" x2="768.0" y2="342.4" stroke="#e6e5e0" stroke-width="1"/><text x="68" y="346.4" font-size="11" fill="#8a8880" text-anchor="end">1.00s</text><line x1="78" y1="280.8" x2="768.0" y2="280.8" stroke="#e6e5e0" stroke-width="1"/><text x="68" y="284.8" font-size="11" fill="#8a8880" text-anchor="end">2.00s</text><line x1="78" y1="219.2" x2="768.0" y2="219.2" stroke="#e6e5e0" stroke-width="1"/><text x="68" y="223.2" font-size="11" fill="#8a8880" text-anchor="end">3.00s</text><line x1="78" y1="157.6" x2="768.0" y2="157.6" stroke="#e6e5e0" stroke-width="1"/><text x="68" y="161.6" font-size="11" fill="#8a8880" text-anchor="end">4.00s</text><line x1="78" y1="96.0" x2="768.0" y2="96.0" stroke="#e6e5e0" stroke-width="1"/><text x="68" y="100.0" font-size="11" fill="#8a8880" text-anchor="end">5.00s</text><text transform="translate(20,250.0) rotate(-90)" font-size="11.5" fill="#52514e" text-anchor="middle">time to first audio (ms)</text><line x1="78" y1="404.0" x2="768.0" y2="404.0" stroke="#cfcec8" stroke-width="1"/><text x="78.0" y="424.0" font-size="12" fill="#0b0b0b" text-anchor="middle">1</text><text x="78.0" y="440.0" font-size="10.5" fill="#d03b3b" text-anchor="middle">fail</text><text x="423.0" y="424.0" font-size="12" fill="#0b0b0b" text-anchor="middle">2</text><text x="423.0" y="440.0" font-size="10.5" fill="#8a8880" text-anchor="middle">&#183;</text><text x="768.0" y="424.0" font-size="12" fill="#0b0b0b" text-anchor="middle">3</text><text x="768.0" y="440.0" font-size="10.5" fill="#8a8880" text-anchor="middle">&#183;</text><text x="423.0" y="462.0" font-size="11.5" fill="#52514e" text-anchor="middle">concurrent callers</text><path d="M423.0 352.1 L768.0 353.7" fill="none" stroke="#86b6ef" stroke-width="2" stroke-linejoin="round" stroke-linecap="round"/><circle cx="423.0" cy="352.1" r="4.5" fill="#86b6ef" stroke="#fcfcfb" stroke-width="2"/><circle cx="768.0" cy="353.7" r="4.5" fill="#86b6ef" stroke="#fcfcfb" stroke-width="2"/><path d="M423.0 208.5 L768.0 340.8" fill="none" stroke="#2a78d6" stroke-width="2" stroke-linejoin="round" stroke-linecap="round"/><circle cx="423.0" cy="208.5" r="4.5" fill="#2a78d6" stroke="#fcfcfb" stroke-width="2"/><circle cx="768.0" cy="340.8" r="4.5" fill="#2a78d6" stroke="#fcfcfb" stroke-width="2"/><path d="M423.0 208.5 L768.0 340.8" fill="none" stroke="#104281" stroke-width="2" stroke-linejoin="round" stroke-linecap="round"/><circle cx="423.0" cy="208.5" r="4.5" fill="#104281" stroke="#fcfcfb" stroke-width="2"/><circle cx="768.0" cy="340.8" r="4.5" fill="#104281" stroke="#fcfcfb" stroke-width="2"/><text x="778.0" y="344.8" font-size="11.5" fill="#52514e">p95 &#183; 1.03s</text><text x="778.0" y="359.8" font-size="11.5" fill="#52514e">p99 &#183; 1.03s</text><text x="778.0" y="374.8" font-size="11.5" fill="#52514e">p50 &#183; 817ms</text><line x1="78.0" y1="96" x2="78.0" y2="404.0" stroke="#d03b3b" stroke-width="1" stroke-dasharray="3 3" opacity="0.7"/><text x="78.0" y="88" font-size="11.5" font-weight="600" fill="#d03b3b" text-anchor="middle">breaks at 1 concurrent (0.00&#215;)</text></svg>